# xmcd
#
# Track frame offsets: 
#        150
#        3547
#        16085
#        34147
#        52397
#        53770
#        65230
#        79860
#        81815
#        96955
#        109110
#        127835
#        150340
#        162622
#        165457
#        177257
#        193530
#        213235
#        218355
#        229652
#        242085
#        254090
#        268050
#        270027
#        288047
#        292782
#
# Disc length: 4314 seconds
#
# Revision: 3
# Processed by: cddbd v1.5.2PL0 Copyright (c) Steve Scherf et al.
# Submitted via: ExactAudioCopyFreeDBPlugin 1.0
#
DISCID=6010d81a
DTITLE=Various Artist - The Stax-Volt Revue
DYEAR=1992
DGENRE=Soul
TTITLE0=Emperor Rosko - Introduction #1 (London) (Hit The Road Stax - 
TTITLE0=Live in Europe)
TTITLE1=Booker T. and the M.G.'s - Red Beans and Rice (Hit The Road Stax -
TTITLE1=Live in Europe)
TTITLE2=Booker T. and the M.G.'s - Booker-Loo (Hit The Road Stax - Live 
TTITLE2=in Europe)
TTITLE3=Booker T. and the M.G.'s - Green Onions (Hit The Road Stax - Liv
TTITLE3=e in Europe)
TTITLE4=Hubert - Introduction #2 (Paris) (Hit The Road Stax - Live in 
TTITLE4=Europe)
TTITLE5=The Mar-Keys - Philly Dog (Hit The Road Stax - Live in Europe)
TTITLE6=The Mar-Keys - Last Night (Hit The Road Stax - Live in Europe)
TTITLE7=Hubert - Introduction #3 (Paris) (Hit The Road Stax - Live in 
TTITLE7=Europe)
TTITLE8=Carla Thomas - Let Me Be Good to You (Hit The Road Stax - Live
TTITLE8=in Europe)
TTITLE9=Carla Thomas - Yesterday (Hit The Road Stax - Live in Europe)
TTITLE10=Carla Thomas - Something Good (Is Going To Happen To You) (Hi
TTITLE10=t The Road Stax - Live in Europe)
TTITLE11=Carla Thomas - B-A-B-Y (Hit The Road Stax - Live in Europe)
TTITLE12=Booker T. and the M.G.'s - Hip-Hug-Her (Hit The Road Stax - Liv
TTITLE12=e in Europe)
TTITLE13=Emperor Rosko - Introduction #4 (London) (Hit The Road Stax -
TTITLE13=Live in Europe)
TTITLE14=Eddie Floyd - I Don't Want to Cry (Hit The Road Stax - Live i
TTITLE14=n Europe)
TTITLE15=Eddie Floyd - Raise Your Hand (Hit The Road Stax - Live in Eu
TTITLE15=rope)
TTITLE16=Eddie Floyd - Knock on Wood (Hit The Road Stax - Live in Euro
TTITLE16=pe)
TTITLE17=Emperor Rosko - Introduction #5 (London) (Hit The Road Stax -
TTITLE17=Live in Europe)
TTITLE18=Otis Redding - Respect (Hit The Road Stax - Live in Europe)
TTITLE19=Otis Redding - My Girl (Hit The Road Stax - Live in Europe)
TTITLE20=Otis Redding - Shake (Hit The Road Stax - Live in Europe)
TTITLE21=Otis Redding - Day Tripper (Hit The Road Stax - Live in Europ
TTITLE21=e)
TTITLE22=Otis Redding - Introduction (Hit The Road Stax - Live in Euro
TTITLE22=pe)
TTITLE23=Otis Redding - Fa-Fa-Fa-Fa-Fa (Sad Song) (Hit The Road Stax -
TTITLE23=Live in Europe)
TTITLE24=Otis Redding - Song Introduction (Hit The Road Stax - Live in
TTITLE24=Europe)
TTITLE25=Otis Redding - Try a Little Tenderness (Hit The Road Stax - L
TTITLE25=ive in Europe)
EXTD=
EXTT0=
EXTT1=
EXTT2=
EXTT3=
EXTT4=
EXTT5=
EXTT6=
EXTT7=
EXTT8=
EXTT9=
EXTT10=
EXTT11=
EXTT12=
EXTT13=
EXTT14=
EXTT15=
EXTT16=
EXTT17=
EXTT18=
EXTT19=
EXTT20=
EXTT21=
EXTT22=
EXTT23=
EXTT24=
EXTT25=
PLAYORDER=
